<svg width="24" height="24" viewBox="0 0 24 24" fill="none" xmlns="http://www.w3.org/2000/svg">
<path d="M23.35 11.9999C23.35 18.2683 18.2684 23.3499 12 23.3499C5.73156 23.3499 0.65 18.2683 0.65 11.9999C0.65 5.73154 5.73156 0.65 12 0.65C18.2684 0.65 23.35 5.73154 23.35 11.9999Z" stroke="white" stroke-width="1.3"/>
<path d="M10.7295 16.5899C10.5264 16.5899 10.3332 16.4961 10.2121 16.3347L7.68304 12.9492H6.03369V11.7167H8.0093C8.21447 11.7167 8.40663 11.8114 8.52673 11.9719L10.5934 14.7377L13.747 7.7792C13.8491 7.55492 14.0783 7.40991 14.3315 7.40991H18.2737V8.64248H14.7488L11.314 16.2206C11.2219 16.4236 11.0248 16.5628 10.7966 16.586C10.7756 16.5889 10.7525 16.5899 10.7295 16.5899Z" fill="white"/>
</svg>
